<svg width="22" height="22" viewBox="0 0 22 22" fill="none" xmlns="http://www.w3.org/2000/svg">
<path d="M10.9365 5.06885C7.97358 5.06885 5.51855 7.48155 5.51855 10.4868C5.51855 13.4921 7.93125 15.9048 10.9365 15.9048C13.9418 15.9048 16.3545 13.4498 16.3545 10.4868C16.3545 7.52387 13.8995 5.06885 10.9365 5.06885ZM10.9365 13.9577C9.03178 13.9577 7.46564 12.3916 7.46564 10.4868C7.46564 8.58208 9.03178 7.01594 10.9365 7.01594C12.8413 7.01594 14.4074 8.58208 14.4074 10.4868C14.4074 12.3916 12.8413 13.9577 10.9365 13.9577Z" fill="#57575A"/>
<path d="M16.5664 6.16938C17.2443 6.16938 17.7939 5.61981 17.7939 4.94187C17.7939 4.26393 17.2443 3.71436 16.5664 3.71436C15.8884 3.71436 15.3389 4.26393 15.3389 4.94187C15.3389 5.61981 15.8884 6.16938 16.5664 6.16938Z" fill="#57575A"/>
<path d="M19.741 1.76719C18.6405 0.624331 17.0744 0.0317383 15.2966 0.0317383H6.57702C2.89448 0.0317383 0.439453 2.48676 0.439453 6.1693V14.8466C0.439453 16.6667 1.03205 18.2328 2.21723 19.3757C3.36009 20.4762 4.8839 21.0264 6.61935 21.0264H15.2543C17.0744 21.0264 18.5982 20.4339 19.6987 19.3757C20.8416 18.2751 21.4342 16.709 21.4342 14.8889V6.1693C21.4342 4.39153 20.8416 2.86772 19.741 1.76719ZM19.4871 14.8889C19.4871 16.2011 19.1061 17.2593 18.3442 17.9788C17.5823 18.6984 16.5241 19.0794 15.2543 19.0794H6.61935C5.34951 19.0794 4.29131 18.6984 3.5294 17.9788C2.7675 17.2169 2.38654 16.1587 2.38654 14.8466V6.1693C2.38654 4.89946 2.7675 3.84126 3.5294 3.07936C4.24898 2.35978 5.34951 1.97883 6.61935 1.97883H15.3389C16.6088 1.97883 17.667 2.35978 18.4289 3.12169C19.1484 3.88359 19.5717 4.94179 19.5717 6.1693V14.8889H19.4871Z" fill="#57575A"/>
</svg>
