<svg width="21" height="18" viewBox="0 0 21 18" fill="none" xmlns="http://www.w3.org/2000/svg">
<path d="M20.8937 2.5825C20.1269 2.92316 19.3021 3.15303 18.4363 3.25615C19.3199 2.72699 19.9981 1.88858 20.3177 0.888962C19.4909 1.37948 18.5756 1.73563 17.6007 1.92765C16.8204 1.0961 15.7083 0.576416 14.4778 0.576416C12.115 0.576416 10.1993 2.49217 10.1993 4.85504C10.1993 5.19032 10.2371 5.51671 10.31 5.82985C6.75409 5.65167 3.6012 3.94843 1.49097 1.35962C1.12279 1.99132 0.911763 2.72618 0.911763 3.51062C0.911763 4.99495 1.66707 6.30445 2.81511 7.07195C2.11394 7.04943 1.45392 6.85719 0.877219 6.53656C0.876838 6.55434 0.876838 6.57233 0.876838 6.59075C0.876838 8.66338 2.35169 10.3927 4.30918 10.786C3.95011 10.8836 3.57207 10.9361 3.1818 10.9361C2.90583 10.9361 2.63794 10.9094 2.37666 10.8592C2.92137 12.5589 4.50141 13.7961 6.37335 13.8306C4.90904 14.9782 3.06437 15.6622 1.05955 15.6622C0.714363 15.6622 0.373919 15.6417 0.0390625 15.6025C1.93288 16.8166 4.18163 17.5248 6.5978 17.5248C14.4679 17.5248 18.7711 11.0051 18.7711 5.3511C18.7711 5.16589 18.7674 4.9809 18.7591 4.79755C19.5948 4.19439 20.3205 3.44077 20.8937 2.5825Z" fill="#A7A9AD"/>
</svg>
