<svg width="21" height="18" viewBox="0 0 21 18" fill="none" xmlns="http://www.w3.org/2000/svg">
<path d="M20.8947 2.5825C20.1279 2.92316 19.3031 3.15303 18.4372 3.25615C19.3209 2.72699 19.9991 1.88858 20.3186 0.888962C19.4918 1.37948 18.5765 1.73563 17.6017 1.92765C16.8214 1.0961 15.7093 0.576416 14.4788 0.576416C12.1159 0.576416 10.2002 2.49217 10.2002 4.85504C10.2002 5.19032 10.238 5.51671 10.311 5.82985C6.75507 5.65167 3.60217 3.94843 1.49194 1.35962C1.12377 1.99132 0.912739 2.72618 0.912739 3.51062C0.912739 4.99495 1.66805 6.30445 2.81609 7.07195C2.11492 7.04943 1.4549 6.85719 0.878195 6.53656C0.877814 6.55434 0.877814 6.57233 0.877814 6.59075C0.877814 8.66338 2.35266 10.3927 4.31015 10.786C3.95108 10.8836 3.57305 10.9361 3.18278 10.9361C2.90681 10.9361 2.63892 10.9094 2.37764 10.8592C2.92234 12.5589 4.50239 13.7961 6.37432 13.8306C4.91002 14.9782 3.06534 15.6622 1.06052 15.6622C0.715339 15.6622 0.374895 15.6417 0.0400391 15.6025C1.93386 16.8166 4.1826 17.5248 6.59877 17.5248C14.4689 17.5248 18.7721 11.0051 18.7721 5.3511C18.7721 5.16589 18.7684 4.9809 18.7601 4.79755C19.5958 4.19439 20.3215 3.44077 20.8947 2.5825Z" fill="#57575A"/>
</svg>
