<svg width="22" height="22" viewBox="0 0 22 22" fill="none" xmlns="http://www.w3.org/2000/svg">
<path d="M10.9375 5.06934C7.97456 5.06934 5.51953 7.48203 5.51953 10.4873C5.51953 13.4926 7.93223 15.9053 10.9375 15.9053C13.9428 15.9053 16.3555 13.4503 16.3555 10.4873C16.3555 7.52436 13.9005 5.06934 10.9375 5.06934ZM10.9375 13.9582C9.03276 13.9582 7.46662 12.3921 7.46662 10.4873C7.46662 8.58256 9.03276 7.01643 10.9375 7.01643C12.8423 7.01643 14.4084 8.58256 14.4084 10.4873C14.4084 12.3921 12.8423 13.9582 10.9375 13.9582Z" fill="#57575A"/>
<path d="M16.5674 6.16987C17.2453 6.16987 17.7949 5.62029 17.7949 4.94236C17.7949 4.26442 17.2453 3.71484 16.5674 3.71484C15.8894 3.71484 15.3398 4.26442 15.3398 4.94236C15.3398 5.62029 15.8894 6.16987 16.5674 6.16987Z" fill="#57575A"/>
<path d="M19.741 1.76768C18.6405 0.624819 17.0744 0.0322266 15.2966 0.0322266H6.57702C2.89448 0.0322266 0.439453 2.48725 0.439453 6.16979V14.847C0.439453 16.6671 1.03205 18.2333 2.21723 19.3761C3.36009 20.4767 4.8839 21.0269 6.61935 21.0269H15.2543C17.0744 21.0269 18.5982 20.4343 19.6987 19.3761C20.8416 18.2756 21.4342 16.7095 21.4342 14.8894V6.16979C21.4342 4.39201 20.8416 2.86821 19.741 1.76768ZM19.4871 14.8894C19.4871 16.2015 19.1061 17.2597 18.3442 17.9793C17.5823 18.6989 16.5241 19.0798 15.2543 19.0798H6.61935C5.34951 19.0798 4.29131 18.6989 3.5294 17.9793C2.7675 17.2174 2.38654 16.1592 2.38654 14.847V6.16979C2.38654 4.89995 2.7675 3.84175 3.5294 3.07985C4.24898 2.36027 5.34951 1.97932 6.61935 1.97932H15.3389C16.6088 1.97932 17.667 2.36027 18.4289 3.12217C19.1484 3.88408 19.5717 4.94228 19.5717 6.16979V14.8894H19.4871Z" fill="#57575A"/>
</svg>
