<svg width="21" height="18" viewBox="0 0 21 18" fill="none" xmlns="http://www.w3.org/2000/svg">
<path d="M20.8937 2.58226C20.1269 2.92292 19.3021 3.15279 18.4363 3.25591C19.3199 2.72674 19.9981 1.88833 20.3177 0.888718C19.4909 1.37923 18.5756 1.73538 17.6007 1.92741C16.8204 1.09585 15.7083 0.576172 14.4778 0.576172C12.115 0.576172 10.1993 2.49192 10.1993 4.85479C10.1993 5.19007 10.2371 5.51646 10.31 5.8296C6.75409 5.65142 3.6012 3.94819 1.49097 1.35938C1.12279 1.99108 0.911763 2.72594 0.911763 3.51038C0.911763 4.99471 1.66707 6.3042 2.81511 7.0717C2.11394 7.04918 1.45392 6.85695 0.877219 6.53631C0.876838 6.55409 0.876838 6.57209 0.876838 6.5905C0.876838 8.66314 2.35169 10.3924 4.30918 10.7858C3.95011 10.8833 3.57207 10.9358 3.1818 10.9358C2.90583 10.9358 2.63794 10.9092 2.37666 10.859C2.92137 12.5587 4.50141 13.7958 6.37335 13.8303C4.90904 14.978 3.06437 15.662 1.05955 15.662C0.714363 15.662 0.373919 15.6415 0.0390625 15.6022C1.93288 16.8164 4.18163 17.5246 6.5978 17.5246C14.4679 17.5246 18.7711 11.0049 18.7711 5.35086C18.7711 5.16565 18.7674 4.98065 18.7591 4.79731C19.5948 4.19414 20.3205 3.44053 20.8937 2.58226Z" fill="#57575A"/>
</svg>
